# 3ds Max Wavefront OBJ Exporter v0.97b - (c)2007 guruware
# File Created: 01.04.2015 15:03:48

#
# object Chainlink
#

v  0.0001 0.0406 0.0000
v  0.0692 0.0406 0.0016
v  0.0692 0.0009 -0.0000
v  0.0001 -0.0001 -0.0000
v  0.1384 0.0406 0.0000
v  0.1384 -0.0001 -0.0000
v  0.0001 0.0813 0.0000
v  0.0692 0.0799 0.0013
v  0.1384 0.0813 0.0000
# 9 vertices

vn 0.0157 0.0068 -0.9999
vn 0.0031 0.0132 -0.9999
vn 0.0081 0.0340 -0.9994
vn -0.0000 0.0000 -1.0000
vn -0.0218 -0.0015 -0.9998
vn -0.0155 0.0136 -0.9998
vn 0.0217 -0.0030 -0.9998
vn -0.0018 -0.0076 -1.0000
vn -0.0183 0.0000 -0.9998
vn -0.0157 -0.0068 0.9999
vn 0.0000 -0.0000 1.0000
vn -0.0081 -0.0340 0.9994
vn -0.0031 -0.0132 0.9999
vn 0.0155 -0.0136 0.9998
vn 0.0218 0.0015 0.9998
vn -0.0217 0.0030 0.9998
vn 0.0018 0.0076 1.0000
vn 0.0183 -0.0000 0.9998
# 18 vertex normals

vt 0.0000 7.5000 0.0000
vt 12.5000 7.5000 0.0000
vt 12.5000 0.0000 0.0000
vt 0.0000 0.0000 0.0000
vt 25.0000 7.5000 0.0000
vt 25.0000 0.0000 0.0000
vt 0.0000 15.0000 0.0000
vt 12.5000 15.0000 0.0000
vt 25.0000 15.0000 0.0000
# 9 texture coords

g Chainlink
s 1
f 1/1/1 2/2/2 3/3/3 4/4/4 
f 2/2/2 5/5/5 6/6/6 3/3/3 
f 7/7/7 8/8/8 2/2/2 1/1/1 
f 8/8/8 9/9/9 5/5/5 2/2/2 
f 1/1/10 4/4/11 3/3/12 2/2/13 
f 2/2/13 3/3/12 6/6/14 5/5/15 
f 7/7/16 1/1/10 2/2/13 8/8/17 
f 8/8/17 2/2/13 5/5/15 9/9/18 
# 8 polygons

#
# object FencePole
#

v  0.0004 0.0814 -0.0000
v  0.0004 -0.0003 -0.0000
v  0.0004 -0.0003 -0.0001
v  0.0004 0.0814 -0.0001
v  0.0003 -0.0003 -0.0002
v  0.0003 0.0814 -0.0002
v  0.0002 -0.0003 -0.0003
v  0.0002 0.0814 -0.0003
v  0.0001 -0.0003 -0.0003
v  0.0001 0.0814 -0.0003
v  -0.0000 -0.0003 -0.0003
v  -0.0000 0.0814 -0.0003
v  -0.0001 -0.0003 -0.0003
v  -0.0001 0.0814 -0.0003
v  -0.0002 -0.0003 -0.0002
v  -0.0002 0.0814 -0.0002
v  -0.0003 -0.0003 -0.0001
v  -0.0003 0.0814 -0.0001
v  -0.0003 -0.0003 -0.0000
v  -0.0003 0.0814 -0.0000
v  -0.0003 -0.0003 0.0001
v  -0.0003 0.0814 0.0001
v  -0.0002 -0.0003 0.0002
v  -0.0002 0.0814 0.0002
v  -0.0001 -0.0003 0.0003
v  -0.0001 0.0814 0.0003
v  -0.0000 -0.0003 0.0003
v  -0.0000 0.0814 0.0003
v  0.0001 -0.0003 0.0003
v  0.0001 0.0814 0.0003
v  0.0002 -0.0003 0.0003
v  0.0002 0.0814 0.0003
v  0.0003 -0.0003 0.0002
v  0.0003 0.0814 0.0002
v  0.0004 -0.0003 0.0001
v  0.0004 0.0814 0.0001
v  0.0002 0.0817 0.0002
v  0.0003 0.0817 0.0001
v  0.0002 0.0817 -0.0002
v  0.0003 0.0817 -0.0000
v  0.0003 0.0817 -0.0001
v  0.0001 0.0817 -0.0003
v  0.0000 0.0817 -0.0003
v  -0.0001 0.0817 -0.0002
v  -0.0001 0.0817 0.0002
v  -0.0002 0.0817 -0.0001
v  -0.0002 0.0817 -0.0000
v  -0.0002 0.0817 0.0001
v  0.0000 0.0817 0.0002
v  0.0001 0.0817 0.0002
v  0.0004 0.0816 -0.0001
v  0.0004 0.0816 -0.0000
v  0.0003 0.0814 -0.0003
v  0.0003 0.0816 -0.0003
v  0.0002 0.0816 -0.0003
v  0.0001 0.0814 -0.0004
v  0.0001 0.0816 -0.0004
v  -0.0000 0.0814 -0.0004
v  -0.0000 0.0816 -0.0004
v  -0.0001 0.0816 -0.0003
v  -0.0002 0.0814 -0.0003
v  -0.0002 0.0816 -0.0003
v  -0.0003 0.0816 -0.0001
v  -0.0003 0.0816 -0.0000
v  -0.0003 0.0816 0.0001
v  -0.0002 0.0816 0.0002
v  -0.0001 0.0816 0.0003
v  -0.0000 0.0814 0.0004
v  -0.0000 0.0816 0.0004
v  0.0001 0.0814 0.0004
v  0.0001 0.0816 0.0004
v  0.0002 0.0816 0.0003
v  0.0003 0.0816 0.0002
v  0.0004 0.0816 0.0001
# 74 vertices

vn 1.0000 0.0000 0.0000
vn 1.0000 -0.0000 0.0000
vn 0.9397 0.0000 -0.3420
vn 0.7660 0.0000 -0.6428
vn 0.5000 0.0000 -0.8660
vn 0.1736 0.0000 -0.9848
vn -0.1736 0.0000 -0.9848
vn -0.5000 0.0000 -0.8660
vn -0.7660 0.0000 -0.6428
vn -0.9397 0.0000 -0.3420
vn -1.0000 0.0000 -0.0000
vn -1.0000 -0.0000 -0.0000
vn -0.9397 -0.0000 0.3420
vn -0.7660 -0.0000 0.6428
vn -0.5000 -0.0000 0.8660
vn -0.1736 -0.0000 0.9848
vn 0.1736 -0.0000 0.9848
vn 0.5000 -0.0000 0.8660
vn 0.7660 -0.0000 0.6428
vn 0.9397 -0.0000 0.3420
vn 0.0000 -1.0000 -0.0000
vn 0.0000 1.0000 -0.0000
vn 1.0000 0.0061 0.0000
vn 0.9397 0.0061 -0.3420
vn 1.0000 0.0061 -0.0000
vn 0.7660 0.0061 -0.6428
vn 0.5000 0.0061 -0.8660
vn 0.1736 0.0061 -0.9848
vn -0.1736 0.0061 -0.9848
vn -0.5000 0.0061 -0.8660
vn -0.7660 0.0061 -0.6428
vn -0.9397 0.0061 -0.3420
vn -1.0000 0.0061 0.0000
vn -1.0000 0.0061 -0.0000
vn -0.9397 0.0061 0.3420
vn -0.7660 0.0061 0.6428
vn -0.5000 0.0061 0.8660
vn -0.1736 0.0061 0.9848
vn 0.1736 0.0061 0.9848
vn 0.5000 0.0061 0.8660
vn 0.7660 0.0061 0.6428
vn 0.9397 0.0061 0.3420
vn 0.4284 0.9036 -0.0000
vn 0.4025 0.9036 -0.1465
vn 0.3281 0.9036 -0.2753
vn 0.2142 0.9036 -0.3710
vn 0.0744 0.9036 -0.4218
vn -0.0744 0.9036 -0.4218
vn -0.2142 0.9036 -0.3710
vn -0.3281 0.9036 -0.2753
vn -0.4025 0.9036 -0.1465
vn -0.4284 0.9036 -0.0000
vn -0.4284 0.9036 0.0000
vn -0.4025 0.9036 0.1465
vn -0.3281 0.9036 0.2753
vn -0.2142 0.9036 0.3710
vn -0.0744 0.9036 0.4218
vn 0.0744 0.9036 0.4218
vn 0.2142 0.9036 0.3710
vn 0.3281 0.9036 0.2753
vn 0.4025 0.9036 0.1465
# 61 vertex normals

vt 0.0053 0.8690 0.0000
vt 0.0053 0.0020 0.0000
vt 0.0767 0.0020 0.0000
vt 0.0767 0.8690 0.0000
vt 0.1436 0.0020 0.0000
vt 0.1436 0.8690 0.0000
vt 0.1982 0.0020 0.0000
vt 0.1982 0.8690 0.0000
vt 0.2338 0.0020 0.0000
vt 0.2338 0.8690 0.0000
vt 0.2562 0.0020 0.0000
vt 0.2562 0.8690 0.0000
vt 0.2895 0.0020 0.0000
vt 0.2895 0.8690 0.0000
vt 0.3477 0.0020 0.0000
vt 0.3477 0.8690 0.0000
vt 0.4253 0.0020 0.0000
vt 0.4253 0.8690 0.0000
vt 0.5140 0.0020 0.0000
vt 0.5140 0.8690 0.0000
vt 0.6033 0.0020 0.0000
vt 0.6033 0.8690 0.0000
vt 0.6830 0.0020 0.0000
vt 0.6830 0.8690 0.0000
vt 0.7444 0.0020 0.0000
vt 0.7444 0.8690 0.0000
vt 0.7817 0.0020 0.0000
vt 0.7817 0.8690 0.0000
vt 0.8012 0.0020 0.0000
vt 0.8012 0.8690 0.0000
vt 0.8268 0.0020 0.0000
vt 0.8268 0.8690 0.0000
vt 0.8721 0.0020 0.0000
vt 0.8721 0.8690 0.0000
vt 0.9322 0.0020 0.0000
vt 0.9322 0.8690 0.0000
vt 0.9980 0.0020 0.0000
vt 0.9980 0.8690 0.0000
vt 0.0080 0.9836 0.0000
vt 0.0060 0.9762 0.0000
vt 0.0053 0.9677 0.0000
vt 0.0151 0.9433 0.0000
vt 0.0060 0.9592 0.0000
vt 0.0080 0.9518 0.0000
vt 0.0112 0.9462 0.0000
vt 0.0192 0.9433 0.0000
vt 0.0231 0.9462 0.0000
vt 0.0283 0.9592 0.0000
vt 0.0262 0.9518 0.0000
vt 0.0231 0.9892 0.0000
vt 0.0290 0.9677 0.0000
vt 0.0283 0.9762 0.0000
vt 0.0262 0.9836 0.0000
vt 0.0192 0.9921 0.0000
vt 0.0151 0.9921 0.0000
vt 0.0112 0.9892 0.0000
vt 0.1122 0.8997 0.0000
vt 0.1106 0.9054 0.0000
vt 0.1082 0.9097 0.0000
vt 0.0966 0.9054 0.0000
vt 0.1052 0.9119 0.0000
vt 0.1020 0.9119 0.0000
vt 0.0991 0.9097 0.0000
vt 0.0951 0.8997 0.0000
vt 0.0945 0.8931 0.0000
vt 0.0966 0.8809 0.0000
vt 0.0951 0.8866 0.0000
vt 0.1082 0.8767 0.0000
vt 0.0991 0.8767 0.0000
vt 0.1021 0.8744 0.0000
vt 0.1052 0.8744 0.0000
vt 0.1106 0.8810 0.0000
vt 0.1122 0.8867 0.0000
vt 0.1127 0.8932 0.0000
vt 0.0053 0.8949 0.0000
vt 0.0097 0.8910 0.0000
vt 0.0156 0.9235 0.0000
vt 0.0116 0.9278 0.0000
vt 0.0143 0.8872 0.0000
vt 0.0197 0.9201 0.0000
vt 0.0190 0.8838 0.0000
vt 0.0237 0.9172 0.0000
vt 0.0238 0.8810 0.0000
vt 0.0278 0.9149 0.0000
vt 0.0286 0.8787 0.0000
vt 0.0319 0.9129 0.0000
vt 0.0336 0.8769 0.0000
vt 0.0361 0.9114 0.0000
vt 0.0385 0.8756 0.0000
vt 0.0403 0.9103 0.0000
vt 0.0435 0.8747 0.0000
vt 0.0444 0.9096 0.0000
vt 0.0485 0.8744 0.0000
vt 0.0486 0.9093 0.0000
vt 0.0535 0.8746 0.0000
vt 0.0529 0.9094 0.0000
vt 0.0585 0.8752 0.0000
vt 0.0571 0.9100 0.0000
vt 0.0635 0.8764 0.0000
vt 0.0612 0.9110 0.0000
vt 0.0684 0.8781 0.0000
vt 0.0654 0.9124 0.0000
vt 0.0733 0.8802 0.0000
vt 0.0695 0.9142 0.0000
vt 0.0782 0.8829 0.0000
vt 0.0736 0.9165 0.0000
vt 0.0829 0.8861 0.0000
vt 0.0777 0.9192 0.0000
vt 0.0875 0.8898 0.0000
vt 0.0818 0.9225 0.0000
vt 0.0919 0.8936 0.0000
vt 0.0858 0.9267 0.0000
vt 0.0155 0.9379 0.0000
vt 0.0184 0.9344 0.0000
vt 0.0219 0.9315 0.0000
vt 0.0255 0.9290 0.0000
vt 0.0293 0.9269 0.0000
vt 0.0331 0.9251 0.0000
vt 0.0370 0.9237 0.0000
vt 0.0409 0.9226 0.0000
vt 0.0448 0.9220 0.0000
vt 0.0487 0.9217 0.0000
vt 0.0526 0.9219 0.0000
vt 0.0565 0.9224 0.0000
vt 0.0604 0.9233 0.0000
vt 0.0643 0.9246 0.0000
vt 0.0681 0.9263 0.0000
vt 0.0719 0.9283 0.0000
vt 0.0756 0.9307 0.0000
vt 0.0790 0.9334 0.0000
vt 0.0820 0.9369 0.0000
vt 0.0323 0.9549 0.0000
vt 0.0309 0.9549 0.0000
vt 0.0309 0.9433 0.0000
vt 0.0323 0.9433 0.0000
vt 0.0328 0.9549 0.0000
vt 0.0328 0.9433 0.0000
vt 0.0337 0.9549 0.0000
vt 0.0337 0.9433 0.0000
vt 0.0347 0.9549 0.0000
vt 0.0347 0.9433 0.0000
vt 0.0358 0.9549 0.0000
vt 0.0358 0.9433 0.0000
vt 0.0373 0.9549 0.0000
vt 0.0373 0.9433 0.0000
vt 0.0390 0.9549 0.0000
vt 0.0390 0.9433 0.0000
vt 0.0411 0.9549 0.0000
vt 0.0411 0.9433 0.0000
vt 0.0431 0.9549 0.0000
vt 0.0431 0.9433 0.0000
vt 0.0449 0.9549 0.0000
vt 0.0449 0.9433 0.0000
vt 0.0465 0.9549 0.0000
vt 0.0465 0.9433 0.0000
vt 0.0481 0.9549 0.0000
vt 0.0481 0.9433 0.0000
vt 0.0495 0.9549 0.0000
vt 0.0495 0.9433 0.0000
vt 0.0510 0.9549 0.0000
vt 0.0510 0.9433 0.0000
vt 0.0524 0.9549 0.0000
vt 0.0524 0.9433 0.0000
vt 0.0533 0.9549 0.0000
vt 0.0533 0.9433 0.0000
vt 0.0541 0.9549 0.0000
vt 0.0541 0.9433 0.0000
vt 0.0547 0.9549 0.0000
vt 0.0547 0.9433 0.0000
# 169 texture coords

g FencePole
s 1
f 10/10/19 11/11/20 12/12/21 13/13/21 
f 13/13/21 12/12/21 14/14/22 15/15/22 
f 15/15/22 14/14/22 16/16/23 17/17/23 
f 17/17/23 16/16/23 18/18/24 19/19/24 
f 19/19/24 18/18/24 20/20/25 21/21/25 
f 21/21/25 20/20/25 22/22/26 23/23/26 
f 23/23/26 22/22/26 24/24/27 25/25/27 
f 25/25/27 24/24/27 26/26/28 27/27/28 
f 27/27/28 26/26/28 28/28/29 29/29/30 
f 29/29/30 28/28/29 30/30/31 31/31/31 
f 31/31/31 30/30/31 32/32/32 33/33/32 
f 33/33/32 32/32/32 34/34/33 35/35/33 
f 35/35/33 34/34/33 36/36/34 37/37/34 
f 37/37/34 36/36/34 38/38/35 39/39/35 
f 39/39/35 38/38/35 40/40/36 41/41/36 
f 41/41/36 40/40/36 42/42/37 43/43/37 
f 43/43/37 42/42/37 44/44/38 45/45/38 
f 45/45/38 44/44/38 11/46/20 10/47/19 
s 2
f 14/48/39 12/49/39 11/50/39 38/51/39 
f 11/50/39 44/52/39 42/53/39 38/51/39 
f 42/53/39 40/54/39 38/51/39 
f 38/51/39 36/55/39 34/56/39 30/57/39 
f 34/56/39 32/58/39 30/57/39 
f 14/48/39 38/51/39 30/57/39 22/59/39 
f 30/57/39 28/60/39 26/61/39 22/59/39 
f 26/61/39 24/62/39 22/59/39 
f 22/59/39 20/63/39 18/64/39 14/48/39 
f 14/48/39 18/64/39 16/65/39 
s 1
f 46/66/40 46/67/40 47/68/40 48/69/40 
f 47/68/40 49/70/40 50/71/40 48/69/40 
f 50/71/40 48/72/40 48/69/40 
f 48/69/40 51/73/40 52/74/40 53/75/40 
f 52/74/40 53/76/40 53/75/40 
f 46/66/40 48/69/40 53/75/40 54/77/40 
f 53/75/40 55/78/40 56/79/40 54/77/40 
f 56/79/40 57/80/40 54/77/40 
f 54/77/40 54/81/40 58/82/40 46/66/40 
f 46/66/40 58/82/40 59/83/40 
f 10/84/41 13/85/42 60/86/42 61/87/43 
f 13/85/42 62/88/44 63/89/44 60/86/42 
f 62/88/44 17/90/45 64/91/45 63/89/44 
f 17/90/45 65/92/46 66/93/46 64/91/45 
f 65/92/46 67/94/47 68/95/47 66/93/46 
f 67/94/47 23/96/48 69/97/48 68/95/47 
f 23/96/48 70/98/49 71/99/49 69/97/48 
f 70/98/49 27/100/50 72/101/50 71/99/49 
f 27/100/50 29/102/51 73/103/52 72/101/50 
f 29/102/51 31/104/53 74/105/53 73/103/52 
f 31/104/53 33/106/54 75/107/54 74/105/53 
f 33/106/54 35/108/55 76/109/55 75/107/54 
f 35/108/55 77/110/56 78/111/56 76/109/55 
f 77/110/56 79/112/57 80/113/57 78/111/56 
f 79/112/57 41/114/58 81/115/58 80/113/57 
f 41/114/58 43/116/59 82/117/59 81/115/58 
f 43/116/59 45/118/60 83/119/60 82/117/59 
f 45/118/60 10/120/41 61/121/43 83/119/60 
s 2
f 49/122/61 61/87/61 60/86/62 50/123/62 
f 50/123/62 60/86/62 63/89/63 48/124/63 
f 48/124/63 63/89/63 64/91/64 48/125/64 
f 48/125/64 64/91/64 66/93/65 51/126/65 
f 51/126/65 66/93/65 68/95/66 52/127/66 
f 52/127/66 68/95/66 69/97/67 53/128/67 
f 53/128/67 69/97/67 71/99/68 53/129/68 
f 53/129/68 71/99/68 72/101/69 55/130/69 
f 55/130/69 72/101/69 73/103/70 56/131/71 
f 56/131/71 73/103/70 74/105/72 57/132/72 
f 57/132/72 74/105/72 75/107/73 54/133/73 
f 54/133/73 75/107/73 76/109/74 54/134/74 
f 54/134/74 76/109/74 78/111/75 58/135/75 
f 58/135/75 78/111/75 80/113/76 59/136/76 
f 59/136/76 80/113/76 81/115/77 46/137/77 
f 46/137/77 81/115/77 82/117/78 46/138/78 
f 46/138/78 82/117/78 83/119/79 47/139/79 
f 47/139/79 83/119/79 61/121/61 49/140/61 
s off
f 13/141/39 10/142/39 10/143/39 13/144/39 
f 62/145/39 13/141/39 13/144/39 15/146/39 
f 17/147/39 62/145/39 15/146/39 17/148/39 
f 65/149/39 17/147/39 17/148/39 19/150/39 
f 67/151/39 65/149/39 19/150/39 21/152/39 
f 23/153/39 67/151/39 21/152/39 23/154/39 
f 70/155/39 23/153/39 23/154/39 25/156/39 
f 27/157/39 70/155/39 25/156/39 27/158/39 
f 29/159/39 27/157/39 27/158/39 29/160/39 
f 31/161/39 29/159/39 29/160/39 31/162/39 
f 33/163/39 31/161/39 31/162/39 33/164/39 
f 35/165/39 33/163/39 33/164/39 35/166/39 
f 77/167/39 35/165/39 35/166/39 37/168/39 
f 79/169/39 77/167/39 37/168/39 39/170/39 
f 41/171/39 79/169/39 39/170/39 41/172/39 
f 43/173/39 41/171/39 41/172/39 43/174/39 
f 45/175/39 43/173/39 43/174/39 45/176/39 
f 10/177/39 45/175/39 45/176/39 10/178/39 
# 84 polygons - 8 triangles

